<svg width="120" height="120" xmlns="http://www.w3.org/2000/svg">

 <g>
  <title>background</title>
  <rect fill="none" id="canvas_background" height="402" width="582" y="-1" x="-1"/>
 </g>
 <g>
  <title>Layer 1</title>
  <line id="svg_1" y2="114.822" x2="103" y1="114.822" x1="11.345" stroke-miterlimit="10" stroke-width="2" stroke="#22a98b" fill="none"/>
  <line id="svg_2" y2="114.822" x2="111.785" y1="114.822" x1="104.452" stroke-miterlimit="10" stroke-width="2" stroke="#22a98b" fill="none"/>
  <line id="svg_3" y2="114.822" x2="118" y1="114.822" x1="114.334" stroke-miterlimit="10" stroke-width="2" stroke="#22a98b" fill="none"/>
  <line id="svg_4" y2="114.822" x2="8.5" y1="114.822" x1="4.834" stroke-miterlimit="10" stroke-width="2" stroke="#22a98b" fill="none"/>
  <path id="svg_6" d="m39.714,93.854c-3.17,0 -5.741,-2.57 -5.741,-5.74l0,-50.598c-11.917,6.035 -20.091,18.389 -20.091,32.66c0,20.21 16.384,36.595 36.595,36.595c11.178,0 21.179,-5.017 27.891,-12.916l-38.654,0l0,-0.001z" fill="#E9EAEB"/>
  <path id="svg_7" d="m66.98,93.854l-27.266,0c-3.17,0 -5.741,-2.57 -5.741,-5.74l0,-63.144c0,-3.17 2.57,-5.741 5.741,-5.741l47.358,0c3.17,0 5.74,2.57 5.74,5.741l0,37.312" stroke-miterlimit="10" stroke-width="2" stroke="#22a98b" fill="none"/>
  <polyline id="svg_8" points="61.24,82.374 39.714,82.374 39.714,30.71    87.072,30.71 87.072,62.282  " stroke-miterlimit="10" stroke-width="2" stroke="#22a98b" fill="none"/>
  <path id="svg_9" d="m94.248,69.458l-2.87,0c0,-1.614 -1.525,-2.87 -2.87,-2.87l-2.87,0c-0.55,-0.862 -1.967,-1.436 -2.871,-1.436l-2.87,0l0,-10.045c0,-1.585 -1.285,-2.87 -2.87,-2.87s-2.87,1.285 -2.87,2.87l0,21.527l-1.917,1.84l-3.75,-5.813c-2.299,-3.163 -5.813,-1.388 -5.813,0c0,0 4.354,13.893 4.978,14.868c1.002,1.57 5.068,5.099 5.068,6.326c0,1.229 0,5.741 0,5.741l21.526,0c0,0 0,-2.373 0,-4.306c0,-1.935 2.87,-4.271 2.87,-7.176l0,-15.786c-0.001,-1.614 -1.525,-2.87 -2.871,-2.87z" fill="#FFFFFF"/>
  <path id="svg_10" d="m72.722,99.596c0,0 0,-4.513 0,-5.741c0,-1.228 -4.066,-4.756 -5.068,-6.326c-0.623,-0.976 -4.978,-14.868 -4.978,-14.868c0,-1.388 3.515,-3.163 5.813,0l3.75,5.813l1.917,-1.84l0,-21.527c0,-1.585 1.285,-2.87 2.87,-2.87l0,0c1.585,0 2.87,1.285 2.87,2.87l0,18.657l0,-1.436l0,-7.176l2.87,0c0.904,0 2.321,0.573 2.871,1.436l2.87,0c1.345,0 2.87,1.256 2.87,2.87l2.87,0c1.346,0 2.87,1.256 2.87,2.87l0,15.786c0,2.904 -2.87,5.241 -2.87,7.176c0,1.933 0,4.306 0,4.306" stroke-miterlimit="10" stroke-width="2" stroke="#22a98b" fill="none"/>
  <line id="svg_11" y2="73.764" x2="85.638" y1="66.588" x1="85.638" stroke-miterlimit="10" stroke-width="2" stroke="#22a98b" fill="none"/>
  <line id="svg_12" y2="75.198" x2="91.378" y1="69.458" x1="91.378" stroke-miterlimit="10" stroke-width="2" stroke="#22a98b" fill="none"/>
  <polyline fill-opacity="0" stroke="#22a98b" id="svg_14" points="97.118,114.336 97.118,98.16    69.852,98.16 69.852,114.336  " stroke-miterlimit="10" stroke-width="2" fill="none"/>
  <line id="svg_15" y2="24.97" x2="69.852" y1="24.97" x1="58.37" stroke-miterlimit="10" stroke-width="2" stroke="#22a98b" fill="none"/>
  <polygon id="svg_16" points="62.705,50.802 45.484,50.802    45.454,36.451 62.676,36.451  " stroke-miterlimit="10" stroke-width="2" stroke="#22a98b" fill="#FFFFFF"/>
  <line stroke="#22a98b" id="svg_17" y2="39.321" x2="82.767" y1="39.321" x1="66.98" stroke-miterlimit="10" stroke-width="2" fill="none"/>
  <line stroke="#22a98b" id="svg_18" y2="45.061" x2="78.462" y1="45.061" x1="66.98" stroke-miterlimit="10" stroke-width="2" fill="none"/>
  <line stroke="#22a98b" id="svg_19" y2="56.542" x2="64.11" y1="56.542" x1="44.019" stroke-miterlimit="10" stroke-width="2" fill="none"/>
  <line id="svg_20" y2="62.282" x2="64.11" y1="62.282" x1="44.019" stroke-miterlimit="10" stroke-width="2" stroke="#22a98b" fill="none"/>
  <line stroke="#22a98b" id="svg_21" y2="68.022" x2="55.5" y1="68.022" x1="44.019" stroke-miterlimit="10" stroke-width="2" fill="none"/>
  <path id="svg_22" d="m63.666,12.833l-12.65,0c-0.937,-1.833 -3.144,-3.722 -5.717,-3.722c-0.816,0 -1.594,0.193 -2.308,0.48c-1.434,-3.822 -5.11,-6.689 -9.432,-6.689c-5.561,0 -10.069,6.266 -10.08,9.932l-14.804,0" stroke-miterlimit="10" stroke-width="2" stroke="#BCC0C4" fill="none"/>
  <line id="svg_23" y2="27.498" x2="5.008" y1="27.498" x1="17.839" stroke-miterlimit="10" stroke-width="2" stroke="#BCC0C4" fill="none"/>
  <line id="svg_24" y2="27.498" x2="25.173" y1="27.498" x1="21.505" stroke-miterlimit="10" stroke-width="2" stroke="#BCC0C4" fill="none"/>
  <line id="svg_25" y2="12.833" x2="70.998" y1="12.833" x1="67.333" stroke-miterlimit="10" stroke-width="2" stroke="#BCC0C4" fill="none"/>
  <line id="svg_26" y2="12.833" x2="78.331" y1="12.833" x1="74.665" stroke-miterlimit="10" stroke-width="2" stroke="#BCC0C4" fill="none"/>
  <path id="svg_27" d="m-182,122" opacity="0.5" fill-opacity="0" stroke-width="2" stroke="#22a98b" fill="none"/>
  <path id="svg_28" d="m171.5,121" opacity="0.5" fill-opacity="0" stroke-width="2" stroke="#22a98b" fill="none"/>
  <rect id="svg_13" height="16.176" width="27.267" fill="#22a98b" y="98.16" x="69.852"/>
 </g>
</svg>