<svg width="120" height="120" xmlns="http://www.w3.org/2000/svg">

 <g>
  <title>background</title>
  <rect fill="none" id="canvas_background" height="402" width="582" y="-1" x="-1"/>
 </g>
 <g>
  <title>Layer 1</title>
  <circle id="svg_2" r="41.837" cy="68.5" cx="54.643" fill="#E9EAEB"/>
  <path id="svg_3" d="m57.64,86.537c-1.224,-3.493 -4.523,-5.834 -8.228,-5.834l-12.202,0l0,-12.203l3.486,3.486c0,0 7.552,0 12.202,0c7.974,0 6.973,-8.716 6.973,-8.716l-12.202,0l-12.202,-12.202l-6.973,0c-3.85,0 -6.972,3.122 -6.972,6.973l0,26.147c0,5.775 4.683,10.459 10.459,10.459l15.688,0l10.459,20.919l9.67,0l-10.158,-29.029z" fill="#22a98b"/>
  <path id="svg_4" d="m33.724,45.674c-4.867,0 -8.716,-3.982 -8.716,-8.894l0,-2.966c0,-4.913 3.849,-8.894 8.716,-8.894c4.868,0 8.716,3.981 8.716,8.894l0,2.966c-0.001,4.912 -3.849,8.894 -8.716,8.894z" stroke-miterlimit="10" stroke-width="2" stroke="#22a98b" fill="#FFFFFF"/>
  <line id="svg_5" y2="71.986" x2="98.222" y1="71.986" x1="37.21" stroke-miterlimit="10" stroke-width="2" stroke="#22a98b" fill="none"/>
  <polyline id="svg_6" points="63.357,65.014 73.817,65.014    73.817,71.986  " stroke-miterlimit="10" stroke-width="2" stroke="#22a98b" fill="none"/>
  <polyline id="svg_7" points="80.79,71.986 80.79,65.014 87.763,65.014    91.249,65.014 91.249,44.095 82.533,44.095  " stroke-miterlimit="10" stroke-width="2" stroke="#22a98b" fill="none"/>
  <path id="svg_8" d="m80.79,58.041l-5.229,0l0,-36.607l5.229,0c1.925,0 3.486,1.561 3.486,3.486l0,29.634c0,1.926 -1.561,3.487 -3.486,3.487z" stroke-miterlimit="10" stroke-width="2" stroke="#22a98b" fill="#FFFFFF"/>
  <line stroke="#22a98b" id="svg_9" y2="115.566" x2="30.237" y1="105.106" x1="30.237" stroke-miterlimit="10" stroke-width="2" fill="none"/>
  <path id="svg_10" d="m58.128,115.566l-10.459,-20.919l-15.689,0c-5.776,0 -10.459,-4.684 -10.459,-10.459l0,-26.147c0,-3.851 3.122,-6.973 6.972,-6.973l6.973,0l12.202,12.202l12.202,0c0,0 1.001,8.716 -6.973,8.716c-4.649,0 -12.202,0 -12.202,0l-10.458,-10.459" stroke-miterlimit="10" stroke-width="2" stroke="#22a98b" fill="none"/>
  <path id="svg_11" d="m37.21,68.5l0,12.203l12.202,0c3.705,0 7.004,2.341 8.228,5.834l10.159,29.029" stroke-miterlimit="10" stroke-width="2" stroke="#22a98b" fill="none"/>
  <path id="svg_12" d="m14.548,54.555l0,33.121c0,7.7 6.245,13.944 13.945,13.944l15.689,0" stroke-miterlimit="10" stroke-width="2" stroke="#22a98b" fill="none"/>
  <polyline id="svg_13" points="14.548,80.703 28.494,80.703    33.724,87.676  " stroke-miterlimit="10" stroke-width="2" stroke="#22a98b" fill="none"/>
  <line stroke="#22a98b" id="svg_14" y2="71.986" x2="105.195" y1="71.986" x1="101.709" stroke-miterlimit="10" stroke-width="2" fill="none"/>
  <line id="svg_15" y2="114.822" x2="103" y1="114.822" x1="11.345" stroke-miterlimit="10" stroke-width="2" stroke="#22a98b" fill="none"/>
  <line id="svg_16" y2="114.822" x2="111.785" y1="114.822" x1="104.452" stroke-miterlimit="10" stroke-width="2" stroke="#22a98b" fill="none"/>
  <line stroke="#22a98b" id="svg_17" y2="114.822" x2="118" y1="114.822" x1="114.334" stroke-miterlimit="10" stroke-width="2" fill="none"/>
  <line id="svg_18" y2="114.822" x2="8.5" y1="114.822" x1="4.834" stroke-miterlimit="10" stroke-width="2" stroke="#22a98b" fill="none"/>
  <line id="svg_19" y2="34.972" x2="102.283" y1="26.849" x1="102.283" stroke-miterlimit="10" stroke-width="2" stroke="#BCC0C4" fill="none"/>
  <line id="svg_20" y2="30.91" x2="98.222" y1="30.91" x1="106.344" stroke-miterlimit="10" stroke-width="2" stroke="#BCC0C4" fill="none"/>
  <circle id="svg_21" r="4.062" cy="11.958" cx="110.405" stroke-miterlimit="10" stroke-width="2" stroke="#BCC0C4" fill="none"/>
  <path id="svg_22" d="m58.936,11.652l-12.649,0c-0.938,-1.833 -3.145,-3.722 -5.717,-3.722c-0.816,0 -1.594,0.193 -2.308,0.48c-1.434,-3.822 -5.11,-6.689 -9.432,-6.689c-5.561,0 -10.069,6.266 -10.08,9.932l-14.805,0" stroke-miterlimit="10" stroke-width="2" stroke="#BCC0C4" fill="none"/>
  <line id="svg_23" y2="26.316" x2="0.278" y1="26.316" x1="13.109" stroke-miterlimit="10" stroke-width="2" stroke="#BCC0C4" fill="none"/>
  <line id="svg_24" y2="26.316" x2="20.443" y1="26.316" x1="16.775" stroke-miterlimit="10" stroke-width="2" stroke="#BCC0C4" fill="none"/>
  <line id="svg_25" y2="11.652" x2="66.268" y1="11.652" x1="62.604" stroke-miterlimit="10" stroke-width="2" stroke="#BCC0C4" fill="none"/>
  <line id="svg_26" y2="11.652" x2="73.602" y1="11.652" x1="69.936" stroke-miterlimit="10" stroke-width="2" stroke="#BCC0C4" fill="none"/>
 </g>
</svg>