<svg width="40" height="40" xmlns="http://www.w3.org/2000/svg">
 <g>
  <title>background</title>
  <rect x="-1" y="-1" width="42" height="42" id="canvas_background" fill="none"/>
 </g>

 <g>
  <title>Layer 1</title>
  <path fill="#22a98b" d="m34.626,19.172l-10.746,-10.746c-0.374,-0.373 -0.981,-0.373 -1.356,0c-0.371,0.375 -0.371,0.981 0,1.355l9.104,9.103l-25.557,0c-0.53,0 -0.958,0.429 -0.958,0.958c0,0.529 0.429,0.958 0.958,0.958l25.57,0l-9.115,9.103c-0.373,0.375 -0.373,0.979 -0.002,1.354c0.188,0.188 0.435,0.282 0.681,0.282c0.244,0 0.489,-0.094 0.677,-0.281l10.746,-10.73c0.18,-0.18 0.28,-0.423 0.28,-0.678c-0.002,-0.254 -0.101,-0.498 -0.282,-0.678z" id="svg_1"/>
 </g>
</svg>